<?xml version="1.0" encoding="utf-8"?>
<!-- Generator: Adobe Illustrator 24.0.2, SVG Export Plug-In . SVG Version: 6.00 Build 0)  -->
<svg version="1.1" id="Layer_1" xmlns="http://www.w3.org/2000/svg" xmlns:xlink="http://www.w3.org/1999/xlink" x="0px" y="0px"
	 viewBox="0 0 50 50" style="enable-background:new 0 0 50 50;" xml:space="preserve">
<style type="text/css">
	.st0{enable-background:new    ;}
	.st1{fill:#40B982;}
</style>
<g class="st0">
	<path class="st1" d="M41.7,31.8c0,1.8-0.5,3.6-1.3,5.2c-1.9,3.4-5.4,5.5-9.3,5.5c-0.4,0-0.8,0-1.2-0.1c-0.4,0-0.8,0.1-1.2,0.1H10.2
		V21.1h19.1c1.5-0.3,2.6-1.6,2.6-3.1c0-1.4-1-2.7-2.4-3.1H17.6v0h-7.4V7.3h18.5c3.8,0,7.3,2,9.2,5.3c0,0.1,0.1,0.1,0.1,0.2
		c0.9,1.6,1.3,3.3,1.3,5.1c0,1.8-0.5,3.6-1.3,5.2c0,0,0,0.1,0,0.1l0,0l0,0l0,0c-0.1,0.1-0.1,0.2-0.2,0.3c0.1,0.1,0.3,0.2,0.4,0.3
		c0.9,0.8,1.6,1.7,2.2,2.8C41.2,28.2,41.7,29.9,41.7,31.8z M17.6,34.9h14.2c1.4-0.4,2.4-1.6,2.4-3.1c0-1.5-1-2.8-2.5-3.1H17.6V34.9z
		"/>
</g>
</svg>
