<?xml version="1.0" encoding="utf-8"?>
<!-- Generator: Adobe Illustrator 24.0.2, SVG Export Plug-In . SVG Version: 6.00 Build 0)  -->
<svg version="1.1" id="Layer_1" xmlns="http://www.w3.org/2000/svg" xmlns:xlink="http://www.w3.org/1999/xlink" x="0px" y="0px"
	 viewBox="0 0 200 50" style="enable-background:new 0 0 200 50;" xml:space="preserve">
<style type="text/css">
	.st0{enable-background:new    ;}
	.st1{fill:#40B982;}
</style>
<g class="st0">
	<path class="st1" d="M34.2,31.8c0,1.8-0.5,3.6-1.3,5.2c-1.9,3.4-5.4,5.5-9.3,5.5c-0.4,0-0.8,0-1.2-0.1c-0.4,0-0.8,0.1-1.2,0.1H2.7
		V21.1h19.1c1.5-0.3,2.6-1.6,2.6-3.1c0-1.4-1-2.7-2.4-3.1H10.1v0H2.7V7.3h18.5c3.8,0,7.3,2,9.2,5.3c0,0.1,0.1,0.1,0.1,0.2
		c0.9,1.6,1.3,3.3,1.3,5.1c0,1.8-0.5,3.6-1.3,5.2c0,0,0,0.1,0,0.1l0,0l0,0l0,0c-0.1,0.1-0.1,0.2-0.2,0.3c0.1,0.1,0.3,0.2,0.4,0.3
		c0.9,0.8,1.6,1.7,2.2,2.8C33.7,28.2,34.2,29.9,34.2,31.8z M10.1,34.9h14.2c1.4-0.4,2.4-1.6,2.4-3.1c0-1.5-1-2.8-2.5-3.1H10.1V34.9z
		"/>
	<path class="st1" d="M47,7.4v35h-7.4v-35H47z"/>
	<path class="st1" d="M80.1,35v7.4H52.2V7.2h7.4V35H80.1z"/>
	<path class="st1" d="M113.2,35v7.4H85.4V7.2h7.4V35H113.2z"/>
	<path class="st1" d="M125.9,7.4v35h-7.4v-35H125.9z"/>
	<path class="st1" d="M159.6,7.4v35h-1.8l-5.2-5.2l-8.8-8.8l-5.1-5.1l-7.4-7.4v-4.4l0-3.3V7.2h1.8l19.1,19.1V7.4H159.6z M131.2,23.2
		l7.4,7.4v11.8h-7.4V23.2z"/>
	<path class="st1" d="M197.4,20.1v7.4h0v14.9h-15.3c-4.7,0-9.2-1.8-12.5-5c-3.4-3.3-5.3-7.7-5.3-12.4c0-4.7,1.9-9.1,5.3-12.4
		c3.4-3.2,7.8-5,12.5-5h15.2v7.4h-16.8c-5.1,0.7-9,5-9,10c0,5,3.9,9.3,9,10h9.4v-7.4h-8.7l-0.4-0.8l-2.1-4.6l-0.9-2H197.4z"/>
</g>
</svg>
